<?xml version="1.0" standalone="no"?><!DOCTYPE svg PUBLIC "-//W3C//DTD SVG 1.1//EN" "http://www.w3.org/Graphics/SVG/1.1/DTD/svg11.dtd"><svg t="1741025416817" class="icon" viewBox="0 0 1024 1024" version="1.1" xmlns="http://www.w3.org/2000/svg" p-id="49073" xmlns:xlink="http://www.w3.org/1999/xlink" width="128" height="128"><path d="M420.864 472.064H81.92c-16.896 0-30.72-13.824-30.72-30.72V102.4c0-16.896 13.824-30.72 30.72-30.72h338.944c16.896 0 30.72 13.824 30.72 30.72v338.944c0 16.896-13.824 30.72-30.72 30.72z m0 502.272H81.92c-16.896 0-30.72-13.824-30.72-30.72v-338.944c0-16.896 13.824-30.72 30.72-30.72h338.944c16.896 0 30.72 13.824 30.72 30.72v338.944c0 17.408-13.824 30.72-30.72 30.72z m345.088-461.312c-19.456 0-37.888-7.68-51.712-21.504l-173.568-173.568c-13.824-13.824-21.504-32.256-21.504-51.712s7.68-37.888 21.504-51.712L714.24 40.96c27.648-27.648 75.776-27.648 103.424 0l173.568 174.08c13.824 13.824 21.504 32.256 21.504 51.712s-7.68 37.888-21.504 51.712L817.664 491.52c-13.824 13.824-32.256 21.504-51.712 21.504z m-1.536-431.104l-183.296 182.784v4.096l182.784 182.784s1.024 1.024 2.048 1.024l184.832-183.296v-4.096L768 81.92h-3.584z m154.624 892.416h-338.944c-16.896 0-30.72-13.824-30.72-30.72v-338.944c0-16.896 13.824-30.72 30.72-30.72h338.944c16.896 0 30.72 13.824 30.72 30.72v338.944c0 17.408-13.824 30.72-30.72 30.72z" p-id="49074"></path></svg>