<?xml version="1.0" standalone="no"?><!DOCTYPE svg PUBLIC "-//W3C//DTD SVG 1.1//EN" "http://www.w3.org/Graphics/SVG/1.1/DTD/svg11.dtd"><svg t="1739245636369" class="icon" viewBox="0 0 1024 1024" version="1.1" xmlns="http://www.w3.org/2000/svg" p-id="121255" xmlns:xlink="http://www.w3.org/1999/xlink" width="128" height="128"><path d="M563.84 744.32c-29.44-27.52-74.88-27.52-104.32 0l-2.56 2.56a68.032 68.032 0 0 0 10.24 103.04L432 1024h160l-35.2-174.72c2.56-1.92 5.12-3.84 7.68-6.4l2.56-2.56c25.6-26.88 24.32-69.76-3.2-96zM538.88 0c60.8 0 145.28 25.6 185.6 104.96 40.32 79.36 43.52 166.4 43.52 187.52 0 21.12 22.4 10.24 22.4 41.6s-9.6 93.44-44.16 135.68c-33.28 42.24-44.8 52.48-66.56 83.84s-33.28 65.28-33.28 94.08c0 101.12 174.72 111.36 284.16 172.16l10.88 6.4c50.56 30.72 66.56 96.64 35.84 146.56-19.2 32-53.76 51.2-90.88 51.2H138.88C80 1024 32 976 32 917.12c0-33.92 16-65.28 42.88-85.12l8.32-5.76c107.52-65.92 295.04-73.6 295.04-177.92 0-27.52-10.88-62.72-33.28-94.08-22.4-32-33.92-42.24-67.2-84.48s-44.8-104.32-44.8-135.68c0-31.36 22.4-21.12 22.4-41.6-1.28-111.36 14.08-194.56 122.88-250.88C400.64 30.08 453.12 24.32 478.08 24.32 505.6 21.76 478.72 0 538.88 0z" p-id="121256"></path></svg>