<?xml version="1.0" standalone="no"?><!DOCTYPE svg PUBLIC "-//W3C//DTD SVG 1.1//EN" "http://www.w3.org/Graphics/SVG/1.1/DTD/svg11.dtd"><svg t="1739245020198" class="icon" viewBox="0 0 1024 1024" version="1.1" xmlns="http://www.w3.org/2000/svg" p-id="39443" xmlns:xlink="http://www.w3.org/1999/xlink" width="128" height="128"><path d="M624.018286 192V256c0 35.291429-28.708571 64-64 64h-96.036572c-35.291429 0-64-28.708571-64-64V192a16.054857 16.054857 0 0 0-15.981714-16.018286H64c-35.291429 0-64 28.708571-64 64v640c0 35.328 28.708571 64 64 64h896c35.291429 0 64-28.672 64-64v-640c0-35.291429-28.708571-64-64-64H640a16.054857 16.054857 0 0 0-16.018286 16.018286z m-48.018286 264.009143a8.045714 8.045714 0 0 1 8.009143-8.009143h303.981714a8.045714 8.045714 0 0 1 8.009143 8.009143v47.981714a8.045714 8.045714 0 0 1-8.009143 8.009143H584.045714a8.045714 8.045714 0 0 1-8.009143-8.009143V456.045714z m0 128a8.045714 8.045714 0 0 1 8.009143-8.009143h303.981714a8.045714 8.045714 0 0 1 8.009143 8.009143v47.981714a8.045714 8.045714 0 0 1-8.009143 8.009143H584.045714a8.045714 8.045714 0 0 1-8.009143-8.009143V584.045714z m0 128a8.045714 8.045714 0 0 1 8.009143-8.009143h303.981714a8.045714 8.045714 0 0 1 8.009143 8.009143v47.981714a8.045714 8.045714 0 0 1-8.009143 8.009143H584.045714a8.045714 8.045714 0 0 1-8.009143-8.009143V712.045714z m-112.786286-202.605714a159.341714 159.341714 0 0 1-53.723428 122.185142 8.045714 8.045714 0 0 0 0.402285 12.434286 175.945143 175.945143 0 0 1 50.395429 60.562286c12.105143 23.808 18.797714 50.834286 18.797714 79.323428a31.963429 31.963429 0 0 1-32 32H159.085714a31.890286 31.890286 0 0 1-22.601143-9.398857 31.890286 31.890286 0 0 1-9.398857-22.601143c0-57.124571 27.209143-107.812571 69.302857-139.995428a7.936 7.936 0 0 0 0.512-12.324572A159.963429 159.963429 0 0 1 300.982857 351.890286c87.917714-0.987429 160.804571 69.705143 162.230857 157.513143z m96.768-397.421715v128c0 8.813714-7.168 16.018286-15.981714 16.018286h-64a16.054857 16.054857 0 0 1-16.018286-16.018286v-128c0-8.777143 7.204571-15.981714 16.018286-15.981714h64c8.777143 0 16.018286 7.204571 16.018286 16.018286z" p-id="39444"></path></svg>