<?xml version="1.0" standalone="no"?><!DOCTYPE svg PUBLIC "-//W3C//DTD SVG 1.1//EN" "http://www.w3.org/Graphics/SVG/1.1/DTD/svg11.dtd"><svg t="1739246430841" class="icon" viewBox="0 0 1090 1024" version="1.1" xmlns="http://www.w3.org/2000/svg" p-id="133394" xmlns:xlink="http://www.w3.org/1999/xlink" width="136.25" height="128"><path d="M482.875757 736.250959h-256.999828a21.138644 21.138644 0 0 0-21.749761 21.249847v162.249613a21.678631 21.678631 0 0 0 6.374654 15.249878 21.310959 21.310959 0 0 0 15.375107 5.999969h256.999828a21.138644 21.138644 0 0 0 21.749762-21.249847V757.375577a21.678631 21.678631 0 0 0-6.374654-15.249878 20.699842 20.699842 0 0 0-15.375108-5.87474z m0-259.124713h-256.999828a21.178717 21.178717 0 0 0-21.124618 21.124619v162.249612a21.678631 21.678631 0 0 0 6.374654 15.249879 21.310959 21.310959 0 0 0 15.375107 5.999969h256.374685a21.138644 21.138644 0 0 0 21.749762-21.249848V498.250865a20.938278 20.938278 0 0 0-21.749762-21.126622z m0 0" p-id="133395"></path><path d="M1066.5027 308.750434h-287.756054l-43.624751-26.624673v-27.874959h126.749714a40.122349 40.122349 0 0 0 39.500211-40.874724V40.875726a40.122349 40.122349 0 0 0-39.500211-40.874724H545.621464a40.122349 40.122349 0 0 0-39.500211 40.874724v172.500352a40.122349 40.122349 0 0 0 39.500211 40.874724h128.125229v28.625331l-43.624751 26.624673H294.00047v-4.12454l-5.500055-18.374591a90.789975 90.789975 0 0 1 0-48.375436l9.500368-26.624674a125.791963 125.791963 0 0 0 6.125197-49.124806v-25.874301a28.73453 28.73453 0 0 0-31.375358-23.874646h-68.12454a28.6634 28.6634 0 0 0-27.249816 25.246153v25.878309a126.086502 126.086502 0 0 0 6.125198 49.124806l9.500367 26.624673a90.789975 90.789975 0 0 1 0 48.375437l-5.500054 18.374591v4.12454h-162.997981A25.19506 25.19506 0 0 0 0.004007 334.750967v68.12454a25.273203 25.273203 0 0 0 24.499789 25.246153h24.499789a25.191052 25.191052 0 0 1 24.499788 25.246153v545.383028a25.273203 25.273203 0 0 0 24.499789 25.246154h24.499789a25.191052 25.191052 0 0 0 24.499788-25.246154V453.250599a25.273203 25.273203 0 0 1 24.499789-25.246153h746.498693a25.191052 25.191052 0 0 1 24.499789 25.246153V998.625612a25.273203 25.273203 0 0 0 24.499788 25.246154h24.49478a25.191052 25.191052 0 0 0 24.499789-25.246154V453.250599a25.273203 25.273203 0 0 1 24.499788-25.246153h24.499789a25.371382 25.371382 0 0 0 18.625049-8.124854 25.054803 25.054803 0 0 0 6.625111-19.124962v-68.124541c0.125229-13.123992-10.625425-23.499961-23.750418-23.874645z m0 0" p-id="133396"></path><path d="M900.118529 498.250865a21.678631 21.678631 0 0 0-6.374653-15.249879 21.310959 21.310959 0 0 0-15.375108-5.999969h-256.368674a21.138644 21.138644 0 0 0-21.749761 21.249848v421.370317a21.678631 21.678631 0 0 0 6.374653 15.249879 21.310959 21.310959 0 0 0 15.375108 5.999969h256.374685a21.138644 21.138644 0 0 0 21.749761-21.249848v-421.370317z m0 0" p-id="133397"></path></svg>