<?xml version="1.0" standalone="no"?><!DOCTYPE svg PUBLIC "-//W3C//DTD SVG 1.1//EN" "http://www.w3.org/Graphics/SVG/1.1/DTD/svg11.dtd"><svg t="1741025046760" class="icon" viewBox="0 0 1024 1024" version="1.1" xmlns="http://www.w3.org/2000/svg" p-id="38893" xmlns:xlink="http://www.w3.org/1999/xlink" width="128" height="128"><path d="M468.96 724.89V542.21c0-18.08 14.66-32.74 32.74-32.74h327.32V124.45c0-33.42-27.09-60.51-60.51-60.51H247.66c-33.42 0-60.51 27.09-60.51 60.51v775.68c0 33.42 27.09 60.51 60.51 60.51h520.85c33.42 0 60.51-27.09 60.51-60.51V757.64H501.7c-18.08 0-32.74-14.66-32.74-32.75zM263 620.86c0 8.91-7.23 16.14-16.14 16.14s-16.14-7.23-16.14-16.14V518.2c0-8.91 7.23-16.14 16.14-16.14S263 509.29 263 518.2v102.66z m35.13-243.65V217.89c0-27.5 22.29-49.79 49.79-49.79h291.06c27.5 0 49.79 22.29 49.79 49.79v159.32c0 27.5-22.29 49.79-49.79 49.79H347.92c-27.5 0-49.79-22.29-49.79-49.79z" fill="#515151" p-id="38894"></path><path d="M558.38 717.17V550.29h-30.47l-33.99 29.53v32.81l33.99-29.53v134.07z m45.09-118.6v70.32c0 31.88 23.67 49.69 50.86 49.69 27.19 0 50.63-17.81 50.63-49.69v-70.32c0-31.88-23.44-49.69-50.63-49.69-27.18 0-50.86 17.81-50.86 49.69z m71.02 0.47v69.61c0 14.06-8.2 22.5-20.16 22.5-11.95 0-20.39-8.44-20.39-22.5v-69.61c0-14.06 8.44-22.74 20.39-22.74 11.96 0 20.16 8.68 20.16 22.74z m140.87 36.56c11.49-13.36 17.81-22.03 17.81-38.21 0-30-21.09-48.52-50.63-48.52-28.59 0-50.86 18.28-50.86 48.75h30.47c0-16.17 10.31-21.33 20.39-21.33 12.89 0 20.16 8.44 20.16 20.86 0 7.73-2.58 12.89-8.67 20.16l-62.35 72.42v27.42h101.49v-27.42h-64.46l46.65-54.13z" fill="#515151" p-id="38895"></path></svg>