<?xml version="1.0" standalone="no"?><!DOCTYPE svg PUBLIC "-//W3C//DTD SVG 1.1//EN" "http://www.w3.org/Graphics/SVG/1.1/DTD/svg11.dtd"><svg t="1741024448067" class="icon" viewBox="0 0 1024 1024" version="1.1" xmlns="http://www.w3.org/2000/svg" p-id="9136" xmlns:xlink="http://www.w3.org/1999/xlink" width="128" height="128"><path d="M725.333333 128h171.050667C943.317333 128 981.333333 165.973333 981.333333 213.205333v640.256C981.333333 900.522667 943.36 938.666667 896.384 938.666667H127.573333C80.682667 938.666667 42.666667 900.693333 42.666667 853.461333V213.205333C42.666667 166.144 80.64 128 127.616 128H298.666667V85.333333a42.666667 42.666667 0 1 1 85.333333 0v42.666667h256V85.333333a42.666667 42.666667 0 0 1 85.333333 0v42.666667z m-241.237333 583.04a42.538667 42.538667 0 0 0 30.165333-12.458667l241.365334-241.365333a42.666667 42.666667 0 1 0-60.330667-60.330667l-211.2 211.2-120.704-120.746666a42.666667 42.666667 0 1 0-60.330667 60.373333l150.869334 150.869333a42.538667 42.538667 0 0 0 30.165333 12.458667z" p-id="9137"></path></svg>