<?xml version="1.0" standalone="no"?><!DOCTYPE svg PUBLIC "-//W3C//DTD SVG 1.1//EN" "http://www.w3.org/Graphics/SVG/1.1/DTD/svg11.dtd"><svg t="1739243961620" class="icon" viewBox="0 0 1024 1024" version="1.1" xmlns="http://www.w3.org/2000/svg" p-id="11650" xmlns:xlink="http://www.w3.org/1999/xlink" width="128" height="128"><path d="M1002.120533 572.637867l-221.9008-114.517334V121.685333L522.530133 0 264.840533 121.685333v322.116267H257.706667L0 565.486933v314.948267l257.6896 121.685333 243.370667-114.517333 243.370666 114.517333 257.706667-121.685333V572.637867zM744.448 672.853333l-171.793067-78.728533 171.793067-78.7456 171.793067 78.7456-171.793067 78.728533z m-429.482667-479.573333l171.793067 78.728533v250.538667l-171.793067-78.7456v-250.538667z m372.224-50.1248l-164.642133 78.7456-171.793067-78.7456 164.642134-78.728533 171.793066 78.728533zM429.482667 594.1248l-171.793067 85.879467-171.793067-85.879467 171.793067-85.896533 171.793067 85.896533z m-372.224 50.107733l171.793066 78.728534v193.262933L57.258667 837.495467V644.215467z m486.741333 0l171.810133 78.728534v200.430933L544.017067 844.629333V644.232533z" p-id="11651"></path></svg>