<?xml version="1.0" standalone="no"?><!DOCTYPE svg PUBLIC "-//W3C//DTD SVG 1.1//EN" "http://www.w3.org/Graphics/SVG/1.1/DTD/svg11.dtd"><svg t="1739244411070" class="icon" viewBox="0 0 1024 1024" version="1.1" xmlns="http://www.w3.org/2000/svg" p-id="19742" xmlns:xlink="http://www.w3.org/1999/xlink" width="128" height="128"><path d="M992.290287 320.016035H769.120259l-174.644911-174.644911a96.026257 96.026257 0 1 0-164.063818 1.137752L255.994169 319.959148H31.743277A32.027715 32.027715 0 0 0 0 351.986863v639.985422c0 17.293828 14.221898 32.027715 31.743277 32.027715h960.490122a32.027715 32.027715 0 0 0 31.743277-31.970827V352.04375a32.027715 32.027715 0 0 0-31.686389-32.027715zM480.131286 186.557742a95.798707 95.798707 0 0 0 65.420732-0.568876l133.116968 134.027169H346.50233L480.131286 186.557742zM127.997085 512.011662h320.049598v64.05543H127.997085V512.011662z m511.988338 320.049599h-511.988338V768.005831h511.988338v63.998542z m192.052514-127.997085H127.997085V640.008746h704.040852v63.998543z" fill="#000000" p-id="19743"></path></svg>