<?xml version="1.0" standalone="no"?><!DOCTYPE svg PUBLIC "-//W3C//DTD SVG 1.1//EN" "http://www.w3.org/Graphics/SVG/1.1/DTD/svg11.dtd"><svg t="1741024360280" class="icon" viewBox="0 0 1024 1024" version="1.1" xmlns="http://www.w3.org/2000/svg" p-id="5490" xmlns:xlink="http://www.w3.org/1999/xlink" width="128" height="128"><path d="M137.520285 106.010699L553.949968 1.130779c19.739985-4.939996 39.47997 6.779995 44.419966 25.90998 0.62 3.079998 1.239999 6.779995 1.239999 10.479992v949.459277c0.62 20.359984-15.429988 37.019972-35.779972 37.019972-2.469998 0-4.939996 0-7.399995-0.62L140.000283 946.270059c-27.149979-5.549996-47.499964-28.999978-48.119963-56.759957V162.770656c0.61-27.149979 19.119985-50.599961 45.639965-56.759957zM697.699859 934.540068h168.419871c36.399972 0 66.00995-29.609977 66.00995-66.00995V153.510663c0-36.399972-29.609977-66.00995-66.00995-66.00995H697.699859v847.039355zM449.690047 433.60045c-25.289981 0-48.109963 33.929974-48.109963 77.109941s20.359984 77.109941 48.109963 77.109941c27.759979 0 48.119963-33.929974 48.119964-77.109941-0.62-42.569968-23.439982-77.109941-48.119964-77.109941z m0 0" p-id="5491"></path></svg>