<?xml version="1.0" standalone="no"?><!DOCTYPE svg PUBLIC "-//W3C//DTD SVG 1.1//EN" "http://www.w3.org/Graphics/SVG/1.1/DTD/svg11.dtd"><svg t="1739246805206" class="icon" viewBox="0 0 1024 1024" version="1.1" xmlns="http://www.w3.org/2000/svg" p-id="145832" xmlns:xlink="http://www.w3.org/1999/xlink" width="128" height="128"><path d="M773.607578 0.008723c22.527808 0 40.049437 17.332001 40.049436 39.556404 0 22.262329-17.521629 42.097419-40.049436 42.097419l-92.652248-0.037926v84.081062h120.186235c50.061796 0 87.608143 39.594329 90.111233 86.584151v601.879317c0 65.156186-57.229735 86.546226-90.111233 86.546226h-25.561856v43.72822c0 22.224403-17.521629 39.556404-40.049436 39.556404a39.290925 39.290925 0 0 1-40.049437-39.556404v-43.72822H320.472475v43.72822c0 22.224403-17.521629 39.556404-40.049437 39.556404a39.290925 39.290925 0 0 1-40.049436-39.556404v-43.72822H220.348883c-47.558706 0-87.608143-37.09124-87.608142-86.546226V252.289833C132.740741 205.300011 172.790177 165.743607 220.348883 165.743607l120.14831-0.037925V81.62462H250.385961A39.290925 39.290925 0 0 1 210.336524 42.106142C210.336524 19.805888 227.858153 0.008723 250.385961 0.008723h523.221617zM415.438184 323.589966c-2.806495 5.461287-5.612989 8.19193-5.612989 13.653217 0 5.423361 2.806495 10.884648 5.612989 13.653218l50.441052 49.113655H421.089099a17.59748 17.59748 0 0 0-16.801042 21.845147c0 8.19193 8.381558 16.38386 16.801042 16.383861h75.699504v38.229008H421.051174a18.924876 18.924876 0 0 0-19.607537 19.114503c0 10.922574 8.381558 19.114504 19.607537 19.114504h75.699503v119.5415c0 10.922574 11.188053 19.114504 19.607537 19.114504 11.225978 0 19.645462-10.922574 19.645462-19.114504V514.659154h75.661578a18.924876 18.924876 0 0 0 19.645462-19.114504 18.924876 18.924876 0 0 0-19.645462-19.114504h-78.505998v-38.229008h75.699503c14.032473 0 19.645462-8.19193 22.451957-16.38386 2.806495-10.922574-8.419484-19.114504-16.838968-21.845147h-53.247546l50.441052-49.151582c8.419484-8.19193 8.419484-19.076578 0-27.306434a19.076578 19.076578 0 0 0-28.027021 0l-70.086514 70.996729-70.086514-70.958803a19.076578 19.076578 0 0 0-28.027021 0z m185.418273-241.965346H420.596066v84.081062h180.260391V81.62462z" p-id="145833"></path><path d="M775.958965 0.008723a39.442627 39.442627 0 0 1 40.27699 39.556404c0 22.262329-17.635405 42.097419-40.314915 42.097419l-93.145281-0.037926V165.743607H602.259704l-0.037926-84.118987h-181.284381V165.743607H340.383416V81.62462h-90.64219A39.442627 39.442627 0 0 1 209.42631 42.106142C209.42631 19.805888 227.023789 0.008723 249.7033 0.008723h526.21774z" p-id="145834"></path></svg>