<?xml version="1.0" standalone="no"?><!DOCTYPE svg PUBLIC "-//W3C//DTD SVG 1.1//EN" "http://www.w3.org/Graphics/SVG/1.1/DTD/svg11.dtd"><svg t="1739245285295" class="icon" viewBox="0 0 1024 1024" version="1.1" xmlns="http://www.w3.org/2000/svg" p-id="55599" xmlns:xlink="http://www.w3.org/1999/xlink" width="128" height="128"><path d="M861.003 771.06H640.76c-17.6 0-32-14.4-32-32v-35.722h189.713c17.6 0 32-14.4 32-32V164.611c0-17.6-14.4-32-32-32H640.761V64.613c0-35.29-28.71-64-64-64h-129.02c-35.29 0-64 28.71-64 64v67.998H220.409c-17.6 0-32 14.4-32 32v506.727c0 17.6 14.4 32 32 32h195.332v35.722c0 17.6-14.4 32-32 32H158.498c-17.6 0-32 14.4-32 32V991c0 17.6 14.4 32 32 32h702.505c17.6 0 32-14.4 32-32V803.06c0-17.6-14.4-32-32-32zM704.399 415.298c0 35.346-28.654 64-64 64-35.346 0-64-28.654-64-64 0-35.346 28.654-64 64-64 35.346 0 64 28.653 64 64zM447.741 64.67a0.438 0.438 0 0 1 0.057-0.057h128.905a0.454 0.454 0 0 1 0.058 0.058v67.94h-129.02V64.67zM322.8 415.298c0-35.346 28.654-64 64-64 35.346 0 64 28.654 64 64 0 35.346-28.654 64-64 64-35.346 0-64-28.654-64-64z m604.771-131.994v263.987c0 17.673-14.327 32-32 32-17.673 0-32-14.327-32-32V283.304c0-17.673 14.327-32 32-32 17.673 0 32 14.327 32 32z m95.496 66.057v128.13c0 17.673-14.327 32-32 32-17.673 0-32-14.327-32-32v-128.13c0-17.673 14.327-32 32-32 17.673 0 32 14.327 32 32z m-895.458 229.93c-17.673 0-32-14.327-32-32V283.304c0-17.673 14.327-32 32-32 17.673 0 32 14.327 32 32v263.987c0 17.673-14.327 32-32 32z m-63.496-229.93v128.13c0 17.673-14.327 32-32 32-17.673 0-32-14.327-32-32v-128.13c0-17.673 14.327-32 32-32 17.673 0 32 14.327 32 32z" fill="" p-id="55600"></path></svg>