<?xml version="1.0" standalone="no"?><!DOCTYPE svg PUBLIC "-//W3C//DTD SVG 1.1//EN" "http://www.w3.org/Graphics/SVG/1.1/DTD/svg11.dtd"><svg t="1739247291195" class="icon" viewBox="0 0 1024 1024" version="1.1" xmlns="http://www.w3.org/2000/svg" p-id="165827" xmlns:xlink="http://www.w3.org/1999/xlink" width="128" height="128"><path d="M607.949338 446.384135v-32.402633H703.941338V349.197567h-82.745104l67.898341-68.708941L643.807683 234.647113 575.952004 303.377385 508.096325 234.647113l-45.286892 45.862845 67.898341 68.687609H447.96267v64.783935h95.992v32.402633H447.96267v64.783934h95.992V575.952004h63.994668v-64.783935H703.941338v-64.783934zM378.805766 586.72444h98.679777c113.014582 0 204.633614 92.728273 204.633614 207.129406H363.745688l0.063995 46.033497h363.78835v-46.033497a259.050412 259.050412 0 0 0-40.295308-138.079161h131.253062c87.736689-0.042663 167.666028 51.046413 205.358887 131.231731-107.553704 143.668028-281.661862 236.993584-478.210816 236.993584-125.557537 0-231.916674-27.133739-318.330806-74.788434V520.937922a314.875094 314.875094 0 0 1 151.432714 65.786518z m-196.890259 345.229897c0 25.427214-20.371636 46.033497-45.500208 46.033497H45.478877C20.350304 977.987834 0 957.36022 0 931.954337V517.674194c0-25.427214 20.350304-46.033497 45.478877-46.033497h90.936422c25.128573 0 45.478877 20.606283 45.478876 46.033497v414.258812z" p-id="165828"></path></svg>