<?xml version="1.0" standalone="no"?><!DOCTYPE svg PUBLIC "-//W3C//DTD SVG 1.1//EN" "http://www.w3.org/Graphics/SVG/1.1/DTD/svg11.dtd"><svg t="1739246981726" class="icon" viewBox="0 0 1024 1024" version="1.1" xmlns="http://www.w3.org/2000/svg" p-id="153185" xmlns:xlink="http://www.w3.org/1999/xlink" width="128" height="128"><path d="M485.048889 272.497778H172.216889L98.773333 492.657778h495.957334c45.624889 34.133333 102.343111 54.442667 163.669333 54.442666 41.699556 0 81.180444-9.329778 116.508444-25.998222l6.883556 19.797334v392.248888a46.876444 46.876444 0 0 1-48.241778 48.184889h-50.517333a47.047111 47.047111 0 0 1-48.241778-48.184889v-50.460444H147.015111v50.460444a46.933333 46.933333 0 0 1-48.241778 48.184889H48.256A47.047111 47.047111 0 0 1 0.014222 933.148444V540.899556l103.367111-293.603556a50.460444 50.460444 0 0 1 9.102223-20.707556 46.364444 46.364444 0 0 1 16.099555-13.710222c6.144-4.608 12.686222-8.021333 19.569778-10.353778 6.826667-2.275556 14.904889-3.413333 24.064-3.413333H495.516444a272.497778 272.497778 0 0 0-10.410666 73.386667z m-312.832 316.586666c-10.752 0-20.252444 2.275556-28.728889 6.826667-8.362667 4.608-16.384 10.069333-24.064 16.042667a69.632 69.632 0 0 0-14.904889 22.926222 70.542222 70.542222 0 0 0-5.745778 27.591111c0 10.752 1.934222 20.309333 5.688889 28.672 3.811556 8.533333 8.874667 16.497778 14.961778 24.064 7.68 6.087111 15.701333 11.093333 24.064 14.904889a72.419556 72.419556 0 0 0 56.32 0.113778c9.159111-3.811556 16.839111-8.817778 22.926222-14.904889 6.087111-7.68 11.491556-15.701333 16.042667-24.064a60.928 60.928 0 0 0 0-56.32 87.381333 87.381333 0 0 0-16.042667-22.869333 87.495111 87.495111 0 0 0-22.926222-16.042667 60.700444 60.700444 0 0 0-27.591111-6.940445z m537.372444 0c-9.159111 0-18.375111 2.275556-27.591111 6.826667-9.216 4.608-16.839111 10.069333-22.926222 16.042667a87.381333 87.381333 0 0 0-16.042667 22.926222 61.553778 61.553778 0 0 0 0 56.32c4.551111 8.419556 9.955556 16.440889 16.042667 24.007111 6.087111 6.087111 13.710222 11.093333 22.926222 14.904889 9.216 3.868444 18.432 5.802667 27.591111 5.802667 10.752 0 20.252444-1.934222 28.728889-5.688889 8.362667-3.811556 16.497778-8.817778 24.064-14.904889 6.087111-7.68 11.150222-15.701333 14.904889-24.064a68.266667 68.266667 0 0 0 5.745778-28.785778c0-9.159111-1.934222-18.318222-5.688889-27.477333a69.632 69.632 0 0 0-14.961778-22.926222 170.609778 170.609778 0 0 0-24.064-16.042667 58.595556 58.595556 0 0 0-28.728889-6.940445z" p-id="153186"></path><path d="M760.903111 42.666667A234.780444 234.780444 0 0 0 526.236444 277.333333 234.780444 234.780444 0 0 0 760.903111 512 234.780444 234.780444 0 0 0 995.569778 277.333333 234.780444 234.780444 0 0 0 760.903111 42.666667z m74.752 232.106666v21.674667h-53.873778v26.965333h54.727111v21.731556h-54.727111v49.493333h-41.756444v-49.493333h-53.873778v-21.731556h53.873778V296.391111h-53.873778V274.773333h41.699556l-62.577778-113.834666h46.933333l49.550222 99.043555 49.550223-99.043555h46.933333l-62.577778 113.834666h39.992889z" p-id="153187"></path></svg>