<?xml version="1.0" standalone="no"?><!DOCTYPE svg PUBLIC "-//W3C//DTD SVG 1.1//EN" "http://www.w3.org/Graphics/SVG/1.1/DTD/svg11.dtd"><svg t="1741025816959" class="icon" viewBox="0 0 1024 1024" version="1.1" xmlns="http://www.w3.org/2000/svg" p-id="70933" xmlns:xlink="http://www.w3.org/1999/xlink" width="128" height="128"><path d="M654.613 830.613h-616.319c-2.453 9.28-4.16 18.88-4.16 29.013 0 64 51.841 115.841 115.839 115.841h608.214s9.174-0.107 22.72-3.84c-57.493-34.667-106.347-108.161-126.293-141.014zM280.32 48.64c-72 0-130.348 58.347-130.348 130.348 0 5.013 0.96 9.707 1.494 14.507h-1.494v579.201h538.347l8.321 14.933c33.173 59.627 99.626 144.001 143.040 144.747 1.28 0 3.307 0 5.759-0.427 24.213-25.493 46.933-65.921 57.6-130.24v-608.32h1.494c-0.533-4.8-1.494-9.493-1.494-14.507 0-56.64 36.373-104.427 86.933-122.347v-8l-709.653 0.107zM642.348 569.92h-376.534v-57.92h376.534v57.92zM758.187 425.067h-492.373v-57.92h492.373v57.92zM758.187 280.32h-492.373v-57.92h492.373v57.92z" p-id="70934"></path></svg>