<?xml version="1.0" standalone="no"?><!DOCTYPE svg PUBLIC "-//W3C//DTD SVG 1.1//EN" "http://www.w3.org/Graphics/SVG/1.1/DTD/svg11.dtd"><svg t="1741025267656" class="icon" viewBox="0 0 1024 1024" version="1.1" xmlns="http://www.w3.org/2000/svg" p-id="44538" xmlns:xlink="http://www.w3.org/1999/xlink" width="128" height="128"><path d="M503.3 145.9S302.6 346.1 303.1 346.1l111.6 111.6L80 793c-20.5 21-20.5 54.3 0 74.7 21 20.5 54.3 20.5 74.7 0L490 532.4l102.4 102.4 200.2-200.2-289.3-288.7zM233.6 304.6c-16.9-16.9-16.9-44 0-60.4L401.5 76.3c16.4-16.9 43.5-16.9 60.4 0 16.9 16.4 16.9 43.5 0 60.4L294 304.6c-16.4 16.9-43.6 16.9-60.4 0z m565.7 173.1c16.4-16.4 43.5-16.4 60.4 0s16.9 43.5 0 60.4L691.7 706c-16.4 16.9-43.5 16.9-60.4 0-16.9-16.4-16.9-43.5 0-60.4l168-167.9zM449.6 959.4c0-49.7 40.4-90.1 90.1-90.1h330.2c49.7 0 90.1 40.4 90.1 90.1H449.6z m510.4 0" p-id="44539"></path></svg>